<svg xmlns="http://www.w3.org/2000/svg" width="11" height="11" viewBox="0 0 11 11">
  <defs>
    <style>
      .cls-1 {
        fill: #6067f1;
        fill-rule: evenodd;
      }
    </style>
  </defs>
  <path id="_" data-name="ï§" class="cls-1" d="M526,369.75a0.75,0.75,0,0,0-.75-0.75H522v-3.25a0.75,0.75,0,0,0-.75-0.75h-1.5a0.75,0.75,0,0,0-.75.75V369h-3.25a0.75,0.75,0,0,0-.75.75v1.5a0.75,0.75,0,0,0,.75.75H519v3.25a0.75,0.75,0,0,0,.75.75h1.5a0.75,0.75,0,0,0,.75-0.75V372h3.25a0.75,0.75,0,0,0,.75-0.75v-1.5Z" transform="translate(-515 -365)"/>
</svg>
