<svg xmlns="http://www.w3.org/2000/svg" width="30" height="37" viewBox="0 0 30 37">
  <defs>
    <style>
      .cls-1 {
        fill: #e0ff01;
        fill-rule: evenodd;
      }
    </style>
  </defs>
  <path class="cls-1" d="M441.4,115.568a2.482,2.482,0,0,0-1.934-.945h-2.448v-0.808A1.771,1.771,0,0,0,435.3,112H418.7a1.771,1.771,0,0,0-1.718,1.815v0.808h-2.448a2.479,2.479,0,0,0-1.934.945,2.748,2.748,0,0,0-.568,2.141A13.852,13.852,0,0,0,418.7,127.6a18.763,18.763,0,0,0,1.095,2.319,10.467,10.467,0,0,0,4.7,4.68,3.9,3.9,0,0,1-2.859,4.184l-0.011,0a0.847,0.847,0,0,0-.622.832v3.929h-1.5a2.506,2.506,0,0,0-2.433,2.569v2.028a0.835,0.835,0,0,0,.811.856h18.337a0.835,0.835,0,0,0,.811-0.856v-2.028a2.506,2.506,0,0,0-2.432-2.569h-1.5v-3.929a0.847,0.847,0,0,0-.624-0.832l-0.01,0a3.894,3.894,0,0,1-2.857-4.22,10.528,10.528,0,0,0,4.618-4.644A18.763,18.763,0,0,0,435.3,127.6a13.852,13.852,0,0,0,6.664-9.891A2.748,2.748,0,0,0,441.4,115.568Zm-27.767,1.866a0.962,0.962,0,0,1,.2-0.757,0.9,0.9,0,0,1,.7-0.341h2.448v1.575a28.319,28.319,0,0,0,.864,7.052A12.275,12.275,0,0,1,413.633,117.434ZM435.4,146.116v1.171H418.681v-1.171a0.835,0.835,0,0,1,.811-0.856h15.094A0.835,0.835,0,0,1,435.4,146.116Zm-12.778-2.569v-3.072h8.841v3.072h-8.841Zm6.723-4.785h-4.6a5.57,5.57,0,0,0,.548-0.756,5.8,5.8,0,0,0,.837-2.939,6,6,0,0,0,1.819-.011A5.813,5.813,0,0,0,429.341,138.762ZM427,133.418c-2.162,0-4.226-1.554-5.814-4.374a23.126,23.126,0,0,1-2.582-11.133v-4.1a0.1,0.1,0,0,1,.1-0.1h16.6a0.1,0.1,0,0,1,.1.1v4.1a23.126,23.126,0,0,1-2.582,11.133C431.227,131.864,429.162,133.418,427,133.418Zm13.367-15.984a12.277,12.277,0,0,1-4.213,7.529,28.319,28.319,0,0,0,.864-7.052v-1.575h2.448a0.9,0.9,0,0,1,.7.341A0.962,0.962,0,0,1,440.367,117.434Zm-9.1,2.775-2.447-.376-1.094-2.341a0.793,0.793,0,0,0-1.454,0l-1.094,2.341-2.447.376a0.826,0.826,0,0,0-.655.583,0.89,0.89,0,0,0,.206.878l1.77,1.822-0.418,2.574a0.878,0.878,0,0,0,.323.837,0.774,0.774,0,0,0,.853.066L427,125.753l2.188,1.216a0.785,0.785,0,0,0,.377.1,0.777,0.777,0,0,0,.477-0.164,0.878,0.878,0,0,0,.323-0.837l-0.418-2.574,1.77-1.822a0.889,0.889,0,0,0,.205-0.878A0.824,0.824,0,0,0,431.268,120.209Zm-2.758,2.371a0.888,0.888,0,0,0-.234.758l0.213,1.307-1.112-.617a0.774,0.774,0,0,0-.754,0l-1.112.617,0.212-1.307a0.884,0.884,0,0,0-.233-0.758l-0.9-.926,1.243-.191a0.812,0.812,0,0,0,.61-0.468L427,119.806,427.556,121a0.812,0.812,0,0,0,.61.468l1.243,0.191Z" transform="translate(-412 -112)"/>
</svg>
