<svg xmlns="http://www.w3.org/2000/svg" xmlns:xlink="http://www.w3.org/1999/xlink" width="23" height="19" viewBox="0 0 23 19"><defs><path id="s9k4a" d="M39.21 334.17h4.77v5.64h-4.75a2.82 2.82 0 0 1-.02-5.63zm.18 1.28a1.47 1.47 0 1 0 0 2.94 1.47 1.47 0 1 0 0-2.94zm4.61 5.24v2.22a2.1 2.1 0 0 1-2.1 2.09H26.1a2.1 2.1 0 0 1-2.1-2.1v-11.8c0-1.16.94-2.1 2.1-2.1h15.78c1.16 0 2.1.94 2.1 2.1v2.19H39.2a3.71 3.71 0 0 0-3.7 3.7c0 2.04 1.66 3.7 3.7 3.7z"/></defs><g><g transform="translate(-22 -327)"><use fill="#96a4b5" xlink:href="#s9k4a"/></g></g></svg>