<svg xmlns="http://www.w3.org/2000/svg" xmlns:xlink="http://www.w3.org/1999/xlink" width="25" height="28" viewBox="0 0 25 28"><defs><path id="h51ea" d="M43 906.78v23.44c0 .43-.35.78-.79.78H29.64a.78.78 0 0 1-.78-.78v-7.81h1.57v7.03h11v-21.88h-11v7.03h-1.57v-7.8c0-.44.35-.79.78-.79h12.57c.44 0 .79.35.79.78zm-6.29 12.5H23.68l3.38 3.36-1.12 1.1-4.71-4.69c-.3-.3-.3-.8 0-1.1l4.71-4.69 1.12 1.1-3.38 3.36h13.03z"/></defs><g><g transform="translate(-19 -904)"><use fill="#96a4b5" xlink:href="#h51ea"/></g></g></svg>