<svg xmlns="http://www.w3.org/2000/svg" width="26" height="26" viewBox="0 0 26 26">
  <defs>
    <style>
      .cls-1 {
        fill: #e0ff01;
        fill-rule: evenodd;
      }
    </style>
  </defs>
  <path class="cls-1" d="M1577.49,37.209l-1.73,1.727a2.18,2.18,0,0,0-1.52,0l-3.55-3.549a0.919,0.919,0,1,0-1.3,1.3l3.55,3.549a2.152,2.152,0,0,0-.14.763,2.2,2.2,0,1,0,4.4,0,2.156,2.156,0,0,0-.14-0.764l1.73-1.727A0.919,0.919,0,1,0,1577.49,37.209ZM1575,41.546a0.546,0.546,0,1,1,.55-0.546A0.551,0.551,0,0,1,1575,41.546ZM1575,28a13,13,0,1,0,13,13A13.014,13.014,0,0,0,1575,28Zm10.42,13.919h0.89a11.312,11.312,0,0,1-2.67,6.422l-0.62-.621a0.919,0.919,0,1,0-1.3,1.3l0.62,0.621a11.282,11.282,0,0,1-6.42,2.666V51.423a0.92,0.92,0,0,0-1.84,0v0.884a11.282,11.282,0,0,1-6.42-2.666l0.62-.621a0.919,0.919,0,1,0-1.3-1.3l-0.62.621a11.312,11.312,0,0,1-2.67-6.422h0.89a0.919,0.919,0,1,0,0-1.839h-0.89a11.313,11.313,0,0,1,2.67-6.422l0.62,0.621a0.91,0.91,0,0,0,.65.269,0.92,0.92,0,0,0,.65-1.57l-0.62-.621a11.282,11.282,0,0,1,6.42-2.666v0.884a0.92,0.92,0,0,0,1.84,0V29.692a11.282,11.282,0,0,1,6.42,2.666l-0.62.621a0.919,0.919,0,1,0,1.3,1.3l0.62-.621a11.312,11.312,0,0,1,2.67,6.422h-0.89A0.919,0.919,0,1,0,1585.42,41.919Z" transform="translate(-1562 -28)"/>
</svg>
