<svg xmlns="http://www.w3.org/2000/svg" width="15.219" height="15.218" viewBox="0 0 15.219 15.218">
  <defs>
    <style>
      .cls-1 {
        fill: #acaec6;
        fill-rule: evenodd;
      }
    </style>
  </defs>
  <path id="_" data-name="ï€" class="cls-1" d="M611.645,600H610.57v-1.285h-1.285v-1.074l0.914-.914,2.359,2.359Zm5.251-9.317a0.231,0.231,0,0,1-.071.17l-5.441,5.442a0.238,0.238,0,0,1-.171.07,0.21,0.21,0,0,1-.221-0.22,0.235,0.235,0,0,1,.07-0.171l5.442-5.442a0.236,0.236,0,0,1,.171-0.07A0.211,0.211,0,0,1,616.9,590.683Zm-0.542-1.928L608,597.108v4.177h4.177l8.353-8.353Zm6.857,0.964a1.339,1.339,0,0,0-.371-0.914l-2.36-2.349a1.3,1.3,0,0,0-.914-0.382,1.26,1.26,0,0,0-.9.382L617,588.112l4.177,4.177,1.667-1.667A1.3,1.3,0,0,0,623.211,589.719Z" transform="translate(-608 -586.063)"/>
</svg>
