<svg xmlns="http://www.w3.org/2000/svg" width="18.563" height="19.969" viewBox="0 0 18.563 19.969">
  <defs>
    <style>
      .cls-1 {
        fill: #b6b6b6;
        fill-rule: evenodd;
      }
    </style>
  </defs>
  <path id="_" data-name="ï³" class="cls-1" d="M170.428,202.428v-3.213h3.212v3.213h-3.212Zm3.926,0v-3.213h3.569v3.213h-3.569Zm-3.926-3.927v-3.569h3.212V198.5h-3.212Zm3.926,0v-3.569h3.569V198.5h-3.569Zm-3.926-4.283v-3.212h3.212v3.212h-3.212Zm8.209,8.21v-3.213h3.57v3.213h-3.57Zm-4.283-8.21v-3.212h3.569v3.212h-3.569Zm8.566,8.21v-3.213h3.213v3.213H182.92Zm-4.283-3.927v-3.569h3.57V198.5h-3.57Zm-3.926-9.637a0.367,0.367,0,0,1-.357.357H173.64a0.367,0.367,0,0,1-.357-0.357v-3.212a0.367,0.367,0,0,1,.357-0.357h0.714a0.367,0.367,0,0,1,.357.357v3.212Zm8.209,9.637v-3.569h3.213V198.5H182.92Zm-4.283-4.283v-3.212h3.57v3.212h-3.57Zm4.283,0v-3.212h3.213v3.212H182.92Zm0.357-5.354a0.367,0.367,0,0,1-.357.357h-0.713a0.367,0.367,0,0,1-.357-0.357v-3.212a0.367,0.367,0,0,1,.357-0.357h0.713a0.367,0.367,0,0,1,.357.357v3.212Zm4.284-.714a1.438,1.438,0,0,0-1.428-1.427h-1.428v-1.071a1.79,1.79,0,0,0-1.785-1.785h-0.713a1.79,1.79,0,0,0-1.785,1.785v1.071h-4.283v-1.071a1.79,1.79,0,0,0-1.785-1.785H173.64a1.791,1.791,0,0,0-1.785,1.785v1.071h-1.427A1.438,1.438,0,0,0,169,188.15v14.278a1.437,1.437,0,0,0,1.428,1.427h15.705a1.437,1.437,0,0,0,1.428-1.427V188.15Z" transform="translate(-169 -183.875)"/>
</svg>
