<svg xmlns="http://www.w3.org/2000/svg" xmlns:xlink="http://www.w3.org/1999/xlink" width="25" height="24" viewBox="0 0 25 24"><defs><path id="e6baa" d="M43.65 121.78a1.19 1.19 0 0 1-1.7 0l-7.96-8.14a.7.7 0 0 0-.98 0l-7.96 8.14c-.47.48-1.23.48-1.7 0a1.25 1.25 0 0 1 0-1.74l7.96-8.14a3.12 3.12 0 0 1 4.38 0l2.37 2.42v-1.3c0-.68.54-1.23 1.2-1.23.67 0 1.2.55 1.2 1.23v3.76l3.19 3.26c.47.48.47 1.26 0 1.74zm-2.73 1.35c.1.12.17.27.17.43v5.22a2.2 2.2 0 0 1-2.17 2.22h-3.46v-5.49h-3.92V131h-3.46c-1.2 0-2.17-1-2.17-2.22v-5.22c0-.16.06-.31.17-.43l7-7.15c.23-.24.6-.24.84 0z"/></defs><g><g transform="translate(-21 -109)"><use fill="#96a4b5" xlink:href="#e6baa"/></g></g></svg>