<svg xmlns="http://www.w3.org/2000/svg" xmlns:xlink="http://www.w3.org/1999/xlink" width="26" height="24" viewBox="0 0 26 24"><defs><path id="a0afa" d="M1269 151.78v2.34c0 .3 0 .4-2.91 1.56l-.1.04-.4.99.04.1c1.3 2.8 1.22 2.9 1.01 3.1l-1.65 1.66a.44.44 0 0 1-.3.12c-.24 0-1.2-.36-2.86-1.08l-.1-.04-1 .42-.04.1c-1.06 2.91-1.18 2.91-1.47 2.91h-2.34c-.28 0-.4 0-1.55-2.9l-.04-.1-1-.42-.1.05c-2.44 1.13-2.73 1.13-2.82 1.13a.45.45 0 0 1-.29-.12l-1.65-1.65c-.2-.21-.29-.29.95-3.16l.05-.1-.41-.99-.1-.04c-2.92-1.06-2.92-1.19-2.92-1.49v-2.33c0-.3 0-.4 2.9-1.56l.1-.04.42-.99-.05-.1c-1.3-2.81-1.22-2.9-1-3.11l1.64-1.65a.44.44 0 0 1 .3-.11c.24 0 1.2.36 2.86 1.07l.1.04 1-.42.04-.1c1.06-2.9 1.19-2.9 1.47-2.9h2.34c.28 0 .4 0 1.55 2.89l.04.1 1 .42.1-.05c2.44-1.13 2.72-1.13 2.82-1.13.1 0 .22.05.28.12l1.66 1.64c.2.21.29.3-.95 3.16l-.05.1.41 1 .1.04c2.92 1.06 2.92 1.19 2.92 1.48zm-7.22 1.22a3.78 3.78 0 1 0-7.57 0 3.78 3.78 0 0 0 7.57 0z"/></defs><g><g transform="translate(-1245 -141)"><use fill="#b6b6b6" xlink:href="#a0afa"/></g></g></svg>