<svg xmlns="http://www.w3.org/2000/svg" width="13.25" height="13.25" viewBox="0 0 13.25 13.25">
  <defs>
    <style>
      .cls-1 {
        fill: #6067f1;
        fill-rule: evenodd;
      }
    </style>
  </defs>
  <path id="_" data-name="ï€" class="cls-1" d="M964.478,161.613a1.078,1.078,0,0,0-.312-0.758l-3.28-3.28,3.28-3.279a1.078,1.078,0,0,0,0-1.517l-1.517-1.517a1.078,1.078,0,0,0-1.517,0l-3.279,3.279-3.28-3.279a1.078,1.078,0,0,0-1.517,0l-1.517,1.517a1.078,1.078,0,0,0,0,1.517l3.28,3.279-3.28,3.28a1.077,1.077,0,0,0,0,1.516l1.517,1.517a1.076,1.076,0,0,0,1.517,0l3.28-3.279,3.279,3.279a1.076,1.076,0,0,0,1.517,0l1.517-1.517A1.078,1.078,0,0,0,964.478,161.613Z" transform="translate(-951.219 -150.938)"/>
</svg>
