<svg xmlns="http://www.w3.org/2000/svg" xmlns:xlink="http://www.w3.org/1999/xlink" width="18" height="23" viewBox="0 0 18 23"><defs><path id="uxasa" d="M393 265.73c0 1.11-.22 2.17-.66 3.16-1.87 4.23-5.47 8.7-6.52 9.96a.41.41 0 0 1-.64 0c-1.05-1.27-4.65-5.73-6.52-9.96a7.74 7.74 0 0 1-.66-3.16 7.63 7.63 0 0 1 7.5-7.73c4.13 0 7.5 3.47 7.5 7.73zm-3.6 0a3.96 3.96 0 0 0-3.9-4.01c-2.15 0-3.9 1.8-3.9 4.01a3.96 3.96 0 0 0 3.9 4.02c2.15 0 3.9-1.8 3.9-4.02z"/></defs><g><g transform="translate(-376 -257)"><use fill="#6067f1" xlink:href="#uxasa"/></g></g></svg>