<svg xmlns="http://www.w3.org/2000/svg" width="36" height="27" viewBox="0 0 36 27">
  <defs>
    <style>
      .cls-1 {
        fill: #e9ff3c;
        fill-rule: evenodd;
      }
    </style>
  </defs>
  <path id="Shape_2_copy" data-name="Shape 2 copy" class="cls-1" d="M444.116,135.655a0.865,0.865,0,1,1-.866.865A0.865,0.865,0,0,1,444.116,135.655Zm-5.558,0a0.865,0.865,0,1,1-.866.865A0.865,0.865,0,0,1,438.558,135.655Zm-5.558,0a0.865,0.865,0,1,1-.865.865A0.865,0.865,0,0,1,433,135.655Zm-5.558,0a0.865,0.865,0,1,1-.865.865A0.866,0.866,0,0,1,427.442,135.655Zm-5.558,0a0.865,0.865,0,1,1-.865.865A0.866,0.866,0,0,1,421.884,135.655Zm22.232,5.552a0.865,0.865,0,1,1-.866.864A0.864,0.864,0,0,1,444.116,141.207Zm-5.558,0a0.865,0.865,0,1,1-.866.864A0.864,0.864,0,0,1,438.558,141.207Zm-5.558,0a0.865,0.865,0,1,1-.865.864A0.864,0.864,0,0,1,433,141.207Zm-11.116,0a0.865,0.865,0,1,1-.865.864A0.865,0.865,0,0,1,421.884,141.207Zm22.232,5.551a0.865,0.865,0,1,1-.866.865A0.865,0.865,0,0,1,444.116,146.758Zm-5.558,0a0.865,0.865,0,1,1-.866.865A0.865,0.865,0,0,1,438.558,146.758Zm-5.558,0a0.865,0.865,0,1,1-.865.865A0.865,0.865,0,0,1,433,146.758Zm-5.558,0a0.865,0.865,0,1,1-.865.865A0.866,0.866,0,0,1,427.442,146.758Zm-5.558,0a0.865,0.865,0,1,1-.865.865A0.866,0.866,0,0,1,421.884,146.758Zm8.17-8.039H424.83a0.744,0.744,0,0,0-.744.744v5.217a0.743,0.743,0,0,0,.744.743h5.224a0.743,0.743,0,0,0,.744-0.743v-5.217A0.744,0.744,0,0,0,430.054,138.719Zm-0.744,5.218h-3.736v-3.731h3.736v3.731Zm19.21-15.158h-5.464v-0.954a0.827,0.827,0,0,0-1.653,0v0.954h-4.5v-0.954a0.827,0.827,0,0,0-1.653,0v0.954h-4.5v-0.954a0.827,0.827,0,0,0-1.653,0v0.954h-4.5v-0.954a0.827,0.827,0,0,0-1.653,0v0.954H417.48a2.481,2.481,0,0,0-2.48,2.477v20.267A2.481,2.481,0,0,0,417.48,154h31.04a2.481,2.481,0,0,0,2.48-2.477V131.256A2.482,2.482,0,0,0,448.52,128.779Zm0.827,22.744a0.828,0.828,0,0,1-.827.826H417.48a0.828,0.828,0,0,1-.827-0.826V131.256a0.828,0.828,0,0,1,.827-0.826h5.463v0.954a0.827,0.827,0,0,0,1.654,0V130.43h4.5v0.954a0.827,0.827,0,0,0,1.653,0V130.43h4.5v0.954a0.827,0.827,0,0,0,1.653,0V130.43h4.5v0.954a0.827,0.827,0,0,0,1.653,0V130.43h5.464a0.828,0.828,0,0,1,.827.826v20.267h0Z" transform="translate(-415 -127)"/>
</svg>
