<svg xmlns="http://www.w3.org/2000/svg" xmlns:xlink="http://www.w3.org/1999/xlink" width="21" height="21" viewBox="0 0 21 21"><defs><path id="cu00a" d="M604.37 267a3.38 3.38 0 1 1-6.75 0 3.38 3.38 0 0 1 6.75 0zm-1.12 0a2.25 2.25 0 1 0-4.5 0 2.25 2.25 0 0 0 4.5 0zm6.75 0c0 .31-.25.56-.56.56h-1.72a6.75 6.75 0 0 1-6.16 6.16v1.72a.56.56 0 0 1-1.12 0v-1.72a6.75 6.75 0 0 1-6.16-6.16h-1.72a.56.56 0 0 1 0-1.12h1.72a6.76 6.76 0 0 1 6.16-6.16v-1.72a.56.56 0 0 1 1.12 0v1.72a6.75 6.75 0 0 1 6.16 6.16h1.72c.3 0 .56.25.56.56zm-3.38 0a5.63 5.63 0 1 0-11.26.01 5.63 5.63 0 0 0 11.26-.01z"/></defs><g><g transform="translate(-590 -256)"><use fill="#acaec6" xlink:href="#cu00a"/></g></g></svg>