<svg xmlns="http://www.w3.org/2000/svg" width="11.438" height="12.562" viewBox="0 0 11.438 12.562">
  <defs>
    <style>
      .cls-1 {
        fill: #6067f1;
        fill-rule: evenodd;
      }
    </style>
  </defs>
  <path id="_" data-name="" class="cls-1" d="M798.31,191.332a1.946,1.946,0,0,1-2.106,2h-2.857v-4H796.2A1.946,1.946,0,0,1,798.31,191.332Zm2.116,0a3.8,3.8,0,0,0-4.044-3.9h-4.811a0.282,0.282,0,0,0-.286.285v5.615h-2a0.282,0.282,0,0,0-.286.286v1.33a0.282,0.282,0,0,0,.286.285h2v1.054h-2a0.282,0.282,0,0,0-.286.285v1.143a0.281,0.281,0,0,0,.286.285h2v1.714a0.282,0.282,0,0,0,.286.286h1.491a0.282,0.282,0,0,0,.285-0.286V198h4.508a0.281,0.281,0,0,0,.286-0.285v-1.143a0.282,0.282,0,0,0-.286-0.285h-4.508v-1.054h3.035A3.8,3.8,0,0,0,800.426,191.332Z" transform="translate(-789 -187.438)"/>
</svg>
