<svg xmlns="http://www.w3.org/2000/svg" width="16" height="13.718" viewBox="0 0 16 13.718">
  <defs>
    <style>
      .cls-1 {
        fill: #b6b6b6;
        fill-rule: evenodd;
      }
    </style>
  </defs>
  <path id="_" data-name="" class="cls-1" d="M1105.71,286.287a1.14,1.14,0,1,0-1.14,1.143A1.139,1.139,0,0,0,1105.71,286.287Zm3.43,0a1.14,1.14,0,1,0-1.14,1.143A1.139,1.139,0,0,0,1109.14,286.287Zm3.43,0a1.145,1.145,0,1,0-1.14,1.143A1.139,1.139,0,0,0,1112.57,286.287Zm-4.57-4.57c3.71,0,6.85,2.089,6.85,4.57s-3.14,4.57-6.85,4.57a9.9,9.9,0,0,1-1.16-.071l-0.51-.054-0.39.34a8.833,8.833,0,0,1-2.45,1.526,6.528,6.528,0,0,0,.63-1.535l0.24-.857-0.78-.447a4.2,4.2,0,0,1-2.44-3.472C1101.14,283.806,1104.28,281.717,1108,281.717Zm8,4.57c0-3.151-3.58-5.713-8-5.713h0c-4.42,0-8,2.562-8,5.713a5.319,5.319,0,0,0,3.02,4.472,5.684,5.684,0,0,1-1.63,2.66,0.636,0.636,0,0,0-.24.518v0.009a0.425,0.425,0,0,0,.39.339h0.04a7.221,7.221,0,0,0,1.02-.2,9.806,9.806,0,0,0,4.1-2.16,12.556,12.556,0,0,0,1.3.071C1112.42,292,1116,289.447,1116,286.287Z" transform="translate(-1100 -280.563)"/>
</svg>
