<svg xmlns="http://www.w3.org/2000/svg" xmlns:xlink="http://www.w3.org/1999/xlink" width="20" height="25" viewBox="0 0 20 25"><defs><path id="4omva" d="M41 484.22V488H33.14a5.27 5.27 0 0 1-.3 0H24V484.22a6.4 6.4 0 0 1 3.16-5.51 7.66 7.66 0 0 0 3.79 2.02l-.1.27h1.28l-.24-.14.6.03c2.08 0 3.97-.83 5.35-2.18a6.4 6.4 0 0 1 3.16 5.51zm-15.02-10.73c0-2.8 1.77-5.18 4.25-6.1a.5.5 0 0 1 .48-.39h3.57a.5.5 0 0 1 .49.38 6.52 6.52 0 1 1-8.79 6.1zm7.62-5.5h-2.2v.01h2.2zm-6.38 4.16c0 1.63 1.32 4.29 2.94 4.29h5.68c1.62 0 1.94-2.66 1.94-4.29s-1.32-1.61-2.94-1.61h-4.68c-1.62 0-2.94-.02-2.94 1.61z"/></defs><g><g transform="translate(-22 -465)"><use fill="#96a4b5" xlink:href="#4omva"/></g></g></svg>