<svg xmlns="http://www.w3.org/2000/svg" xmlns:xlink="http://www.w3.org/1999/xlink" width="49" height="58" viewBox="0 0 49 58"><defs><path id="pfusa" d="M35.5 52.13c-6.7 0-12.08-2.39-13-5.58a13.16 13.16 0 0 0 26 0c-.92 3.2-6.3 5.58-13 5.58zm0-18.76c7.37 0 13.14 2.89 13.14 6.57V39a13.15 13.15 0 0 0-26.28 0v.94c0-3.68 5.77-6.57 13.14-6.57zm11.27 6.57c0-2.22-4.63-4.69-11.27-4.69s-11.26 2.47-11.26 4.69v5.62c0 2.22 4.62 4.69 11.26 4.69h.66c-1.49-.1-2.54-.85-2.54-1.88 0-1.08 1.19-1.87 2.82-1.87 1.07 0 1.96.34 2.43.89 2.36-.38 7.47-2.75 7.9-3.75zM37.14 50.2c5.19-.33 8.85-2.19 9.52-4.04a23.48 23.48 0 0 1-7.7 3.1c-.35.47-1 .81-1.82.94zm7.44-9.27a.93.93 0 0 1-1.32-.05C42.8 40.38 40.1 39 35.5 39c-4.03 0-6.4 1.07-7.03 1.4a.92.92 0 0 0-.48.82v4.34a.94.94 0 0 1-1.88 0v-4.34c0-1.05.57-2 1.5-2.48.92-.49 3.56-1.62 7.9-1.62 4.98 0 8.25 1.53 9.13 2.49.35.38.33.97-.06 1.32zm13.24 37.73a.94.94 0 0 1-.73.34H13.91a.94.94 0 0 1-.92-1.12l1.49-17.44a4.69 4.69 0 0 1 2.75-3.4l3.74-1.6a3.2 3.2 0 0 1 1.96-2.62 14.9 14.9 0 0 1-2.45-8.2V39a15.03 15.03 0 0 1 30.04 0v5.62c0 3.03-.9 5.85-2.45 8.2l.09.04a3.2 3.2 0 0 1 1.87 2.59l3.74 1.6a4.69 4.69 0 0 1 2.75 3.39l1.49 17.44a.94.94 0 0 1-.2.78zM35.5 61.5c4.86 0 9.45-2.09 12.68-5.74-.08-.58-.34-1-.74-1.17a.77.77 0 0 0-.88.18 14.99 14.99 0 0 1-22.12 0 .78.78 0 0 0-.88-.18c-.4.17-.66.6-.73 1.17A16.89 16.89 0 0 0 35.5 61.5zm20.45 15.63L54.68 60.8c-.18-.91-.8-1.67-1.65-2.04l-3.64-1.55a18.74 18.74 0 0 1-27.78 0l-3.64 1.55a2.82 2.82 0 0 0-1.65 2.03l-1.26 16.33z"/></defs><g><g clip-path="url(#clip-18302)" opacity=".68" transform="translate(-11 -22)"><use fill="#8c97bb" xlink:href="#pfusa"/></g></g></svg>