<svg xmlns="http://www.w3.org/2000/svg" width="13.719" height="13.718" viewBox="0 0 13.719 13.718">
  <defs>
    <style>
      .cls-1 {
        fill: #a4a8e9;
        fill-rule: evenodd;
      }
    </style>
  </defs>
  <path id="_" data-name="" class="cls-1" d="M811,360.145a0.282,0.282,0,0,0-.286-0.286h-0.571a0.282,0.282,0,0,0-.286.286v3.142h-2a0.282,0.282,0,0,0-.286.286v0.571a0.282,0.282,0,0,0,.286.286h2.856a0.282,0.282,0,0,0,.286-0.286v-4Zm3.713,3.142a4.856,4.856,0,1,1-4.856-4.856A4.861,4.861,0,0,1,814.711,363.287Zm2,0a6.856,6.856,0,1,0-6.856,6.856A6.857,6.857,0,0,0,816.711,363.287Z" transform="translate(-803 -356.438)"/>
</svg>
