<svg xmlns="http://www.w3.org/2000/svg" width="22" height="16" viewBox="0 0 22 16">
  <defs>
    <style>
      .cls-1 {
        fill: #2b2b2b;
        fill-rule: evenodd;
      }
    </style>
  </defs>
  <path id="Shape_2_copy_2" data-name="Shape 2 copy 2" class="cls-1" d="M873.793,294.129a0.513,0.513,0,1,1-.529.512A0.521,0.521,0,0,1,873.793,294.129Zm-3.4,0a0.513,0.513,0,1,1-.528.512A0.521,0.521,0,0,1,870.4,294.129Zm-3.4,0a0.513,0.513,0,1,1-.529.512A0.521,0.521,0,0,1,867,294.129Zm-3.4,0a0.513,0.513,0,1,1-.528.512A0.52,0.52,0,0,1,863.6,294.129Zm-3.4,0a0.513,0.513,0,1,1-.529.512A0.521,0.521,0,0,1,860.207,294.129Zm13.586,3.29a0.512,0.512,0,1,1-.529.512A0.521,0.521,0,0,1,873.793,297.419Zm-3.4,0a0.512,0.512,0,1,1-.528.512A0.521,0.521,0,0,1,870.4,297.419Zm-3.4,0a0.512,0.512,0,1,1-.529.512A0.521,0.521,0,0,1,867,297.419Zm-6.793,0a0.512,0.512,0,1,1-.529.512A0.521,0.521,0,0,1,860.207,297.419Zm13.586,3.29a0.512,0.512,0,1,1-.529.512A0.521,0.521,0,0,1,873.793,300.709Zm-3.4,0a0.512,0.512,0,1,1-.528.512A0.521,0.521,0,0,1,870.4,300.709Zm-3.4,0a0.512,0.512,0,1,1-.529.512A0.521,0.521,0,0,1,867,300.709Zm-3.4,0a0.512,0.512,0,1,1-.528.512A0.52,0.52,0,0,1,863.6,300.709Zm-3.4,0a0.512,0.512,0,1,1-.529.512A0.521,0.521,0,0,1,860.207,300.709Zm4.992-4.764h-3.192a0.447,0.447,0,0,0-.454.44v3.092a0.447,0.447,0,0,0,.454.44H865.2a0.447,0.447,0,0,0,.455-0.44v-3.092A0.447,0.447,0,0,0,865.2,295.945Zm-0.454,3.092h-2.283v-2.211h2.283v2.211Zm11.739-8.983h-3.339v-0.565a0.505,0.505,0,0,0-1.01,0v0.565h-2.75v-0.565a0.505,0.505,0,0,0-1.01,0v0.565h-2.75v-0.565a0.505,0.505,0,0,0-1.01,0v0.565h-2.75v-0.565a0.506,0.506,0,0,0-1.011,0v0.565h-3.339A1.494,1.494,0,0,0,856,291.522v12.01A1.494,1.494,0,0,0,857.515,305h18.969A1.494,1.494,0,0,0,878,303.532v-12.01A1.5,1.5,0,0,0,876.484,290.054Zm0.506,13.478a0.5,0.5,0,0,1-.506.489H857.515a0.5,0.5,0,0,1-.5-0.489v-12.01a0.5,0.5,0,0,1,.5-0.489h3.339V291.6a0.506,0.506,0,0,0,1.011,0v-0.565h2.75V291.6a0.505,0.505,0,0,0,1.01,0v-0.565h2.75V291.6a0.505,0.505,0,0,0,1.01,0v-0.565h2.75V291.6a0.505,0.505,0,0,0,1.01,0v-0.565h3.339a0.5,0.5,0,0,1,.506.489v12.01h0Z" transform="translate(-856 -289)"/>
</svg>
