<svg xmlns="http://www.w3.org/2000/svg" width="38" height="38" viewBox="0 0 38 38">
  <defs>
    <style>
      .cls-1 {
        fill: #e0ff01;
        fill-rule: evenodd;
      }
    </style>
  </defs>
  <path class="cls-1" d="M443.84,583.7a2.474,2.474,0,0,1-1.169-.3l-7.436-3.968a0.5,0.5,0,0,0-.467,0l-7.437,3.968a2.46,2.46,0,0,1-2.639-.193,2.548,2.548,0,0,1-1-2.488l1.42-8.406a0.514,0.514,0,0,0-.144-0.451l-6.016-5.953a2.553,2.553,0,0,1-.634-2.608,2.5,2.5,0,0,1,2.023-1.731l8.314-1.227a0.5,0.5,0,0,0,.378-0.278l3.718-7.648a2.489,2.489,0,0,1,4.494,0l3.719,7.648a0.5,0.5,0,0,0,.377.278l8.315,1.227a2.5,2.5,0,0,1,2.023,1.731,2.555,2.555,0,0,1-.634,2.608l-6.017,5.953a0.513,0.513,0,0,0-.144.45l1.42,8.407a2.546,2.546,0,0,1-1,2.488A2.475,2.475,0,0,1,443.84,583.7ZM435,577.339a2.471,2.471,0,0,1,1.166.292L443.6,581.6a0.482,0.482,0,0,0,.528-0.039,0.5,0.5,0,0,0,.2-0.5l-1.421-8.406a2.568,2.568,0,0,1,.721-2.252l6.016-5.953a0.5,0.5,0,0,0,.127-0.522,0.491,0.491,0,0,0-.4-0.346l-8.315-1.227a2.508,2.508,0,0,1-1.887-1.391l-3.718-7.649h0a0.5,0.5,0,0,0-.9,0l-3.719,7.649a2.506,2.506,0,0,1-1.886,1.391l-8.315,1.227a0.491,0.491,0,0,0-.405.346,0.5,0.5,0,0,0,.127.522l6.017,5.953a2.563,2.563,0,0,1,.72,2.251l-1.42,8.407a0.5,0.5,0,0,0,.2.5,0.482,0.482,0,0,0,.528.039l7.437-3.969A2.473,2.473,0,0,1,435,577.339Zm10.057-21.594a0.984,0.984,0,0,1-.589-0.2,1.027,1.027,0,0,1-.222-1.421l1.064-1.487a1,1,0,0,1,1.4-.225,1.029,1.029,0,0,1,.221,1.422l-1.064,1.486A1,1,0,0,1,445.058,555.745Zm-20.118-.006a1,1,0,0,1-.812-0.42l-1.063-1.486a1.028,1.028,0,0,1,.221-1.422,0.993,0.993,0,0,1,1.4.225l1.064,1.487a1.026,1.026,0,0,1-.221,1.421A0.984,0.984,0,0,1,424.94,555.739ZM417,575.73a1.006,1.006,0,0,1-.953-0.7,1.021,1.021,0,0,1,.644-1.282l1.721-.568a1,1,0,0,1,1.264.653,1.022,1.022,0,0,1-.644,1.283l-1.722.567A0.982,0.982,0,0,1,417,575.73ZM435,589a1.011,1.011,0,0,1-1-1.018v-1.837a1,1,0,1,1,2,0v1.837A1.01,1.01,0,0,1,435,589Zm18-13.269a0.985,0.985,0,0,1-.31-0.05l-1.722-.568a1.02,1.02,0,0,1-.643-1.282,1,1,0,0,1,1.263-.653l1.721,0.567a1.022,1.022,0,0,1,.644,1.283A1,1,0,0,1,453,575.731Z" transform="translate(-416 -551)"/>
</svg>
