<svg xmlns="http://www.w3.org/2000/svg" xmlns:xlink="http://www.w3.org/1999/xlink" width="20" height="21" viewBox="0 0 20 21"><defs><path id="99i6a" d="M41.38 410.37a27.61 27.61 0 0 0-4.97-3.13.15.15 0 0 1-.09-.13v-3.3c.43-.29.7-.76.7-1.3v-3.42c0-1.7-1.4-3.09-3.14-3.09h-.76a3.12 3.12 0 0 0-3.15 3.09v3.42c0 .54.28 1.01.7 1.3v3.3c0 .05-.03.1-.08.13a27.6 27.6 0 0 0-4.97 3.13c-.4.31-.62.78-.62 1.28V414h7.38l.73-3.28c-1.47-2 .11-2.1.39-2.1.27 0 1.86.1.39 2.1l.73 3.28H42v-2.35c0-.5-.23-.97-.62-1.28z"/></defs><g><g transform="translate(-23 -394)"><use fill="#96a4b5" xlink:href="#99i6a"/></g></g></svg>