<svg xmlns="http://www.w3.org/2000/svg" xmlns:xlink="http://www.w3.org/1999/xlink" width="18" height="19" viewBox="0 0 18 19"><defs><path id="7hg9a" d="M963.67 1025a3.5 3.5 0 0 1-2.6-1.17 4.18 4.18 0 0 1-1.07-2.84c0-1.07.38-2.08 1.07-2.84l7.6-8.3c1.1-1.18 2.78-1.13 3.94.13a3.16 3.16 0 0 1 .11 4.3l-7.14 7.79c-.67.73-1.76.73-2.44 0a2 2 0 0 1 0-2.66l4.84-5.28a.4.4 0 0 1 .6 0c.16.18.16.47 0 .65l-4.84 5.28c-.35.37-.35.99 0 1.36.34.38.9.38 1.25 0l7.14-7.8c.75-.81.7-2.1-.11-3-.82-.88-2-.94-2.75-.12l-7.6 8.3a3.23 3.23 0 0 0-.84 2.19c0 .83.3 1.61.83 2.2a2.7 2.7 0 0 0 4.02 0l7.6-8.3a.4.4 0 0 1 .6 0c.16.17.16.46 0 .64l-7.61 8.3a3.5 3.5 0 0 1-2.6 1.17z"/></defs><g><g transform="translate(-958 -1007)"><use fill="#abb1b3" xlink:href="#7hg9a"/></g></g></svg>