<svg xmlns="http://www.w3.org/2000/svg" width="19" height="19" viewBox="0 0 19 19">
  <defs>
    <style>
      .cls-1 {
        fill-rule: evenodd;
      }
    </style>
  </defs>
  <path id="Shape_3_copy" data-name="Shape 3 copy" class="cls-1" d="M425.32,116.73l-1.262,1.262a1.61,1.61,0,0,0-1.117,0l-2.593-2.594a0.672,0.672,0,0,0-.95.951l2.593,2.593a1.608,1.608,0,1,0,3.117.558,1.591,1.591,0,0,0-.1-0.558l1.262-1.262A0.672,0.672,0,0,0,425.32,116.73ZM423.5,119.9a0.4,0.4,0,1,1,.4-0.4A0.4,0.4,0,0,1,423.5,119.9Zm0-9.9a9.5,9.5,0,1,0,9.5,9.5A9.511,9.511,0,0,0,423.5,110Zm7.617,10.172h0.646a8.256,8.256,0,0,1-1.948,4.693l-0.454-.454a0.672,0.672,0,1,0-.95.95l0.454,0.454a8.25,8.25,0,0,1-4.693,1.948v-0.646a0.672,0.672,0,0,0-1.344,0v0.646a8.25,8.25,0,0,1-4.693-1.948l0.454-.454a0.672,0.672,0,1,0-.95-0.95l-0.454.454a8.25,8.25,0,0,1-1.948-4.693h0.646a0.672,0.672,0,1,0,0-1.344h-0.646a8.25,8.25,0,0,1,1.948-4.693l0.454,0.454a0.672,0.672,0,1,0,.95-0.95l-0.454-.454a8.25,8.25,0,0,1,4.693-1.948v0.646a0.672,0.672,0,0,0,1.344,0v-0.646a8.25,8.25,0,0,1,4.693,1.948l-0.454.454a0.672,0.672,0,1,0,.95.95l0.454-.454a8.256,8.256,0,0,1,1.948,4.693h-0.646A0.672,0.672,0,0,0,431.117,120.172Z" transform="translate(-414 -110)"/>
</svg>
