<svg xmlns="http://www.w3.org/2000/svg" width="30" height="37" viewBox="0 0 30 37">
  <defs>
    <style>
      .cls-1 {
        fill: #e0ff01;
        fill-rule: evenodd;
      }
    </style>
  </defs>
  <path class="cls-1" d="M913.4,538.568a2.482,2.482,0,0,0-1.934-.945h-2.448v-0.808A1.771,1.771,0,0,0,907.3,535H890.7a1.771,1.771,0,0,0-1.718,1.815v0.808h-2.448a2.482,2.482,0,0,0-1.934.945,2.744,2.744,0,0,0-.567,2.141A13.848,13.848,0,0,0,890.7,550.6a18.556,18.556,0,0,0,1.1,2.319,10.455,10.455,0,0,0,4.7,4.68,3.894,3.894,0,0,1-2.859,4.184,0.045,0.045,0,0,1-.011,0,0.847,0.847,0,0,0-.622.832v3.929h-1.5a2.507,2.507,0,0,0-2.433,2.569v2.028a0.834,0.834,0,0,0,.811.856h18.337a0.834,0.834,0,0,0,.811-0.856v-2.028a2.506,2.506,0,0,0-2.432-2.569h-1.5v-3.929a0.847,0.847,0,0,0-.624-0.832l-0.01,0a3.9,3.9,0,0,1-2.857-4.22,10.523,10.523,0,0,0,4.618-4.644,18.763,18.763,0,0,0,1.1-2.319,13.852,13.852,0,0,0,6.664-9.891A2.744,2.744,0,0,0,913.4,538.568Zm-27.767,1.866a0.962,0.962,0,0,1,.2-0.757,0.9,0.9,0,0,1,.7-0.341h2.448v1.575a28.319,28.319,0,0,0,.864,7.052A12.275,12.275,0,0,1,885.633,540.434ZM907.4,569.116v1.171H890.681v-1.171a0.835,0.835,0,0,1,.811-0.856h15.094A0.835,0.835,0,0,1,907.4,569.116Zm-12.779-2.569v-3.072h8.842v3.072h-8.842Zm6.723-4.785h-4.6a5.57,5.57,0,0,0,.548-0.756,5.8,5.8,0,0,0,.837-2.939,6,6,0,0,0,1.819-.011A5.813,5.813,0,0,0,901.341,561.762ZM899,556.418c-2.162,0-4.226-1.553-5.813-4.374a23.113,23.113,0,0,1-2.583-11.132v-4.1a0.1,0.1,0,0,1,.1-0.1h16.6a0.1,0.1,0,0,1,.1.1v4.1a23.126,23.126,0,0,1-2.582,11.133C903.227,554.865,901.162,556.418,899,556.418Zm13.367-15.984a12.277,12.277,0,0,1-4.213,7.529,28.319,28.319,0,0,0,.864-7.052v-1.575h2.448a0.9,0.9,0,0,1,.7.341A0.962,0.962,0,0,1,912.367,540.434Zm-9.1,2.775-2.447-.376-1.094-2.341a0.793,0.793,0,0,0-1.454,0l-1.094,2.341-2.447.376a0.827,0.827,0,0,0-.655.583,0.892,0.892,0,0,0,.206.878l1.77,1.822-0.418,2.574a0.878,0.878,0,0,0,.323.837,0.776,0.776,0,0,0,.854.066L899,548.754l2.188,1.215a0.789,0.789,0,0,0,.378.1,0.776,0.776,0,0,0,.476-0.164,0.878,0.878,0,0,0,.323-0.837l-0.418-2.574,1.77-1.822a0.892,0.892,0,0,0,.206-0.878A0.827,0.827,0,0,0,903.268,543.209Zm-2.758,2.371a0.888,0.888,0,0,0-.234.758l0.213,1.307-1.112-.617a0.769,0.769,0,0,0-.377-0.1,0.779,0.779,0,0,0-.377.1l-1.112.617,0.212-1.307a0.884,0.884,0,0,0-.233-0.758l-0.9-.926,1.243-.19a0.816,0.816,0,0,0,.61-0.469L899,542.806,899.556,544a0.816,0.816,0,0,0,.61.469l1.243,0.19Z" transform="translate(-884 -535)"/>
</svg>
