<svg xmlns="http://www.w3.org/2000/svg" width="20" height="17.125" viewBox="0 0 20 17.125">
  <defs>
    <style>
      .cls-1 {
        fill: #a6aeb0;
        fill-rule: evenodd;
      }
    </style>
  </defs>
  <path id="_" data-name="ïµ" class="cls-1" d="M1465.99,39.861c0-3.949-4.47-7.139-10-7.139s-9.99,3.2-9.99,7.139c0,2.264,1.47,4.283,3.77,5.588a7.067,7.067,0,0,1-2.03,3.324,0.747,0.747,0,0,0-.3.647v0.011a0.509,0.509,0,0,0,.53.424,9.392,9.392,0,0,0,1.28-.245,12.224,12.224,0,0,0,5.13-2.7,15.289,15.289,0,0,0,1.61.089C1461.52,47,1465.99,43.81,1465.99,39.861Z" transform="translate(-1446 -32.719)"/>
</svg>
