<svg xmlns="http://www.w3.org/2000/svg" xmlns:xlink="http://www.w3.org/1999/xlink" width="18" height="20" viewBox="0 0 18 20"><defs><path id="n7saa" d="M36.71 264.75H41L36.71 269zm-1.07-.53V269h-8.57c-.59 0-1.07-.48-1.07-1.06v-14.88c0-.58.48-1.06 1.07-1.06h12.86c.6 0 1.07.48 1.07 1.06v10.63h-4.82c-.3 0-.54.24-.54.53zm-7.5-8.5c0 .3.24.53.54.53h9.64c.3 0 .54-.24.54-.53 0-.3-.24-.53-.54-.53h-9.64c-.3 0-.54.24-.54.53zm0 3.19c0 .29.24.53.54.53h9.64c.3 0 .54-.24.54-.53 0-.3-.24-.54-.54-.54h-9.64c-.3 0-.54.24-.54.54zm10.18 3.71c.3 0 .54-.23.54-.53 0-.29-.24-.53-.54-.53h-9.64c-.3 0-.54.24-.54.53 0 .3.24.53.54.53z"/></defs><g><g transform="translate(-24 -250)"><use fill="#96a4b5" xlink:href="#n7saa"/></g></g></svg>